<svg height="511pt" viewBox="-58 1 511 511.999" width="511pt" xmlns="http://www.w3.org/2000/svg"><path d="m304.085938 65.25v361.488281h-293.585938v-361.488281" fill="#fff"/><path d="m10.5 426.738281h293.585938v49.550781c0 14.199219-11.511719 25.710938-25.710938 25.710938h-242.167969c-14.199219 0-25.707031-11.511719-25.707031-25.710938zm0 0" fill="#62728c"/><path d="m232.957031 65.25h-222.457031v-29.539062c0-14.199219 11.507812-25.710938 25.707031-25.710938h242.167969c14.199219 0 25.710938 11.511719 25.710938 25.710938v29.539062" fill="#b9b9bd"/><path d="m386.480469 133.808594c0 35.265625-28.589844 63.855468-63.855469 63.855468s-63.855469-28.589843-63.855469-63.855468 28.589844-63.855469 63.855469-63.855469 63.855469 28.589844 63.855469 63.855469zm0 0" fill="#49db95"/><path d="m317.621094 161.511719c-2.558594 0-5.117188-.976563-7.070313-2.925781l-15.703125-15.707032c-3.90625-3.902344-3.90625-10.234375 0-14.140625 3.902344-3.90625 10.234375-3.90625 14.140625 0l8.632813 8.632813 24.335937-24.335938c3.90625-3.90625 10.238281-3.90625 14.140625-.003906 3.90625 3.90625 3.90625 10.238281.003906 14.144531l-31.40625 31.40625c-1.957031 1.953125-4.515624 2.929688-7.074218 2.929688zm0 0"/><path d="m177.578125 474.367188h-50.671875c-5.523438 0-10-4.476563-10-10 0-5.519532 4.476562-10 10-10h50.671875c5.519531 0 10 4.480468 10 10 0 5.523437-4.480469 10-10 10zm0 0"/><path d="m258.769531 289.378906v-153.570312h-202.953125v290.929687h202.953125v-48.40625" fill="#93d3f1"/><path d="m258.769531 343c-.648437 0-1.308593-.058594-1.949219-.191406-.640624-.128906-1.269531-.328125-1.878906-.578125-.601562-.25-1.183594-.558594-1.722656-.921875-.550781-.359375-1.058594-.777344-1.519531-1.238282-.460938-.460937-.878907-.96875-1.25-1.519531-.359375-.539062-.667969-1.121093-.917969-1.722656-.25-.609375-.441406-1.238281-.570312-1.878906-.132813-.640625-.191407-1.300781-.191407-1.949219s.058594-1.308594.191407-1.949219c.128906-.640625.320312-1.269531.570312-1.871093.25-.609376.558594-1.191407.917969-1.730469.371093-.550781.789062-1.058594 1.25-1.519531.460937-.460938.96875-.878907 1.519531-1.238282.539062-.363281 1.121094-.671875 1.722656-.921875.609375-.25 1.238282-.449219 1.878906-.578125 1.277344-.261718 2.609376-.25 3.898438 0 .640625.128906 1.269531.328125 1.871094.578125.609375.25 1.191406.558594 1.730468.921875.550782.359375 1.058594.777344 1.519532 1.238282.460937.460937.878906.96875 1.238281 1.519531.363281.539062.671875 1.121093.921875 1.730469.25.601562.441406 1.230468.570312 1.871093.128907.640625.199219 1.300781.199219 1.949219s-.070312 1.308594-.199219 1.949219c-.128906.640625-.320312 1.269531-.570312 1.878906-.25.601563-.558594 1.183594-.921875 1.722656-.359375.550781-.777344 1.058594-1.238281 1.519531-.460938.460938-.96875.878907-1.519532 1.238282-.539062.363281-1.121093.671875-1.730468.921875-.601563.25-1.230469.449219-1.871094.578125-.640625.132812-1.300781.191406-1.949219.191406zm0 0"/><path d="m126.625 356.570312h61.332031v70.167969h-61.332031zm0 0" fill="#ffdd73"/><path d="m93.054688 178.804688h43.953124v43.953124h-43.953124zm0 0" fill="#fff"/><path d="m137.007812 232.757812h-43.949218c-5.523438 0-10-4.476562-10-10v-43.949218c0-5.523438 4.476562-10 10-10h43.949218c5.523438 0 10 4.476562 10 10v43.949218c0 5.523438-4.476562 10-10 10zm-33.953124-20h23.953124v-23.949218h-23.953124zm0 0"/><path d="m177.578125 178.804688h43.949219v43.953124h-43.949219zm0 0" fill="#fff"/><path d="m221.527344 232.757812h-43.949219c-5.523437 0-10-4.476562-10-10v-43.949218c0-5.523438 4.476563-10 10-10h43.949219c5.523437 0 10 4.476562 10 10v43.949218c0 5.523438-4.476563 10-10 10zm-33.949219-20h23.949219v-23.949218h-23.949219zm0 0"/><path d="m93.054688 267.402344h43.953124v43.953125h-43.953124zm0 0" fill="#fff"/><path d="m137.007812 321.351562h-43.949218c-5.523438 0-10-4.476562-10-10v-43.949218c0-5.523438 4.476562-10 10-10h43.949218c5.523438 0 10 4.476562 10 10v43.949218c0 5.523438-4.476562 10-10 10zm-33.953124-20h23.953124v-23.949218h-23.953124zm0 0"/><path d="m177.578125 267.402344h43.949219v43.953125h-43.949219zm0 0" fill="#fff"/><path d="m221.527344 321.351562h-43.949219c-5.523437 0-10-4.476562-10-10v-43.949218c0-5.523438 4.476563-10 10-10h43.949219c5.523437 0 10 4.476562 10 10v43.949218c0 5.523438-4.476563 10-10 10zm-33.949219-20h23.949219v-23.949218h-23.949219zm0 0"/><path d="m322.625 59.953125c-2.886719 0-5.738281.164063-8.539062.488281v-24.734375c0-19.6875-16.019532-35.707031-35.710938-35.707031h-242.167969c-19.691406 0-35.707031 16.019531-35.707031 35.707031v440.582031c0 19.691407 16.015625 35.710938 35.707031 35.710938h242.167969c19.691406 0 35.710938-16.019531 35.710938-35.710938v-269.117187c2.800781.324219 5.648437.492187 8.539062.492187 40.722656 0 73.851562-33.132812 73.851562-73.855468s-33.128906-73.855469-73.851562-73.855469zm-302.125-24.246094c0-8.660156 7.046875-15.707031 15.707031-15.707031h242.167969c8.664062 0 15.710938 7.046875 15.710938 15.707031v29.542969c0 .144531.003906.289062.007812.433594-24.253906 10.195312-41.960938 32.976562-44.894531 60.125h-193.382813c-5.523437 0-10 4.476562-10 10v280.929687h-25.316406v-341.488281h212.457031c5.523438 0 10-4.476562 10-10s-4.476562-10-10-10h-212.457031zm273.585938 440.585938c0 8.660156-7.046876 15.707031-15.710938 15.707031h-242.167969c-8.660156 0-15.707031-7.046875-15.707031-15.707031v-39.554688h273.585938zm-116.128907-59.554688h-41.332031v-50.167969h41.332031zm116.128907 0h-25.316407v-38.402343c0-5.523438-4.476562-10-10-10-5.523437 0-10 4.476562-10 10v38.402343h-17.242187v-60.167969c0-5.519531-4.476563-10-10-10-5.523438 0-10 4.480469-10 10v60.167969h-13.570313v-60.167969c0-5.519531-4.476562-10-10-10h-61.332031c-5.523438 0-10 4.480469-10 10v60.167969h-13.566406v-60.167969c0-5.519531-4.476563-10-10-10-5.523438 0-10 4.480469-10 10v60.167969h-17.242188v-270.929687h182.953125v143.570312c0 5.523438 4.476563 10 10 10 5.523438 0 10-4.476562 10-10v-105.082031c7.058594 7.523437 15.667969 13.570313 25.316407 17.628906zm28.539062-229.074219c-29.695312 0-53.855469-24.160156-53.855469-53.855468 0-29.695313 24.160157-53.855469 53.855469-53.855469s53.855469 24.160156 53.855469 53.855469c0 29.695312-24.160157 53.855468-53.855469 53.855468zm0 0"/></svg>