<svg height="512.00002pt" viewBox="0 0 512.00002 512.00002" width="512.00002pt" xmlns="http://www.w3.org/2000/svg"><path d="m463.957031 512c-12.832031 0-24.878906-5.054688-33.949219-14.238281l-188.496093-188.335938 67.898437-67.914062 188.414063 188.59375c9.105469 9.003906 14.175781 21.050781 14.175781 33.867187s-5.054688 24.878906-14.238281 33.949219c-8.925781 9.023437-20.972657 14.078125-33.804688 14.078125zm0 0" fill="#e4edfb"/><path d="m497.777344 430.054688-127.941406-128.035157-67.847657 67.851563 127.972657 127.859375c9.070312 9.183593 21.117187 14.238281 33.949218 14.238281 12.828125 0 24.875-5.054688 33.804688-14.09375 9.164062-9.074219 14.238281-21.121094 14.238281-33.949219 0-12.832031-5.058594-24.878906-14.175781-33.871093zm0 0" fill="#77959e"/><path d="m352.925781 285.09375c-16.957031 27.515625-40.316406 50.875-67.832031 67.832031l-43.515625-43.515625 67.832031-67.832031zm0 0" fill="#d7e1f2"/><path d="m351.96875 175.984375c0 97.191406-78.792969 175.984375-175.984375 175.984375-97.195313 0-175.984375-78.792969-175.984375-175.984375 0-97.195313 78.789062-175.984375 175.984375-175.984375 97.191406 0 175.984375 78.789062 175.984375 175.984375zm0 0" fill="#ffcb5a"/><g fill="#fff"><path d="m255.976562 159.984375h31.996094v31.996094h-31.996094zm0 0"/><path d="m63.992188 159.984375h32v31.996094h-32zm0 0"/><path d="m191.980469 63.992188h-31.996094v34.941406c-18.574219 6.640625-31.996094 24.222656-31.996094 45.054687 0 26.460938 21.535157 47.992188 47.996094 47.992188 8.832031 0 15.996094 7.183593 15.996094 16 0 8.816406-7.164063 16-15.996094 16h-47.996094v31.996093h31.996094v31.996094h31.996094v-34.941406c18.574219-6.621094 32-24.21875 32-45.050781 0-26.460938-21.535157-47.996094-47.996094-47.996094-8.832031 0-16-7.183594-16-15.996094 0-8.816406 7.167969-16 16-16h47.996094v-31.996093h-32zm0 0"/></g><path d="m175.984375 31.996094c-91.640625 0-167.058594 70.425781-175.167969 159.984375-.480468-5.277344-.816406-10.589844-.816406-15.996094 0-97.03125 78.953125-175.984375 175.984375-175.984375s175.984375 78.953125 175.984375 175.984375c0 5.40625-.335938 10.71875-.816406 15.996094-8.113282-89.558594-83.53125-159.984375-175.167969-159.984375zm0 0" fill="#fba61f"/><path d="m497.714844 467.828125c-8.945313 9.039063-20.992188 14.09375-33.804688 14.09375-12.816406 0-24.878906-5.054687-33.949218-14.238281l-112.949219-112.851563-15.023438 15.019531 127.972657 127.863282c9.070312 9.179687 21.117187 14.238281 33.949218 14.238281 12.828125 0 24.875-5.058594 33.804688-14.097656 9.164062-9.070313 14.238281-21.117188 14.238281-33.945313 0-5.21875-1.042969-10.226562-2.640625-15.023437-2.351562 7.039062-6.144531 13.566406-11.597656 18.941406zm0 0" fill="#62808c"/></svg>