<svg height="512pt" viewBox="0 0 512 512" width="512pt" xmlns="http://www.w3.org/2000/svg"><path d="m34.265625 194.695312c.640625-.636718 1.292969-1.269531 1.953125-1.890624-3.933594-4.710938-6.21875-10.730469-6.21875-17.136719 0-8.285157-6.714844-14.996094-15-14.996094s-15 6.71875-15 15.003906c0 15.683594 6.425781 30.289063 17.269531 40.78125 4.664063-7.851562 10.347657-15.164062 16.996094-21.761719zm0 0"/><path d="m497 64.265625h-58.054688l-39.414062-39.410156v40.140625c0 34.261718-27.871094 62.132812-62.132812 62.132812-11.75 0-22.75-3.28125-32.132813-8.972656v41.445312c0 18.335938-14.863281 33.199219-33.199219 33.199219h-159.632812c-45.035156 0-80.300782 35.417969-80.300782 79.265625v106.253906l-27.738281 27.738282c-2.816406 2.8125-4.394531 6.628906-4.394531 10.609375v80.332031c0 8.285156 6.714844 15 15 15h96.398438c8.285156 0 15-6.714844 15-15v-32.132812c0-15.773438-7.789063-29.765626-19.726563-38.328126l43.074219-43.070312h107.320312v113.53125c0 8.285156 6.714844 15 15 15h96.398438c8.285156 0 15-6.714844 15-15v-32.132812c0-20.75-13.476563-38.40625-32.132813-44.6875v-76.558594c40.378907-33.160156 64.269531-83.371094 64.269531-135.820313v-17.132812h33.199219c34.902344 0 63.199219-28.296875 63.199219-63.199219v-48.203125c0-8.285156-6.714844-15-15-15zm0 0"/><path d="m337.398438 97.128906c17.71875 0 32.132812-14.414062 32.132812-32.136718v-54.765626c.003906-5.648437-4.578125-10.226562-10.222656-10.226562h-43.816406c-5.648438 0-10.226563 4.578125-10.226563 10.226562v54.777344c0 17.714844 14.410156 32.125 32.132813 32.125zm0 0"/></svg>