<svg height="512" viewBox="0 0 512 512" width="512" xmlns="http://www.w3.org/2000/svg"><path d="m329.61 339.313v43.809l5.868 26.4 17.746 5.915-7.374-29.5a7.93 7.93 0 0 1 -.24-1.94v-60.684z"/><path d="m363.3 210.8c-.17-1.02-.3-2.047-.407-3.077a23.905 23.905 0 0 1 -1.287-7.723c0-.4.011-.788.03-1.179a98.045 98.045 0 0 1 -82.214-49.321l-7.253 7.252a160.388 160.388 0 0 1 -46.385 55.115l-55.575 41.682a152.305 152.305 0 0 0 -55.292 81.383l-9 33.012 15.383 53.856a8.052 8.052 0 0 1 .215 1.034c.006.043.011.087.017.131a7.983 7.983 0 0 1 .07 1.009v.061.206 9.782a13.99 13.99 0 0 0 13.977 13.977h106.027v-8.709a15.308 15.308 0 0 0 -15.291-15.291h-31.715a8 8 0 0 1 0-16 29.063 29.063 0 0 0 26.138-16.154 29.37 29.37 0 0 0 2.518-18.8 48.977 48.977 0 0 0 -26.29-34.421l-6.939-3.469a8 8 0 1 1 7.157-14.31l6.937 3.468a64.873 64.873 0 0 1 34.824 45.594 45.443 45.443 0 0 1 -3.482 28.219l9.4-4.7 31.082-31.082a8 8 0 0 1 13.375 3.553l22.397 82.102h27.643l4.689-18.753-17.933-5.977c-.057-.02-.11-.048-.167-.069-.2-.07-.388-.149-.578-.235-.1-.046-.2-.087-.3-.136a8.225 8.225 0 0 1 -.737-.419c-.105-.068-.2-.143-.305-.215-.147-.105-.292-.211-.432-.325-.1-.085-.205-.172-.3-.262-.139-.125-.271-.257-.4-.391-.08-.083-.163-.163-.239-.249a7.9 7.9 0 0 1 -.539-.681c-.057-.08-.105-.164-.158-.246-.114-.175-.224-.353-.324-.538-.06-.109-.115-.221-.17-.333q-.121-.252-.226-.515c-.048-.121-.1-.24-.141-.364-.071-.2-.129-.415-.184-.628-.021-.084-.053-.164-.072-.249l-7.04-31.68a7.966 7.966 0 0 1 -.191-1.735v-48a8 8 0 0 1 2.343-5.657l30.911-30.91 8.011-18.694a125.03 125.03 0 0 0 8.422-69.939z"/><path d="m105.606 425.12-14.729-51.551a42.486 42.486 0 0 1 -21.127-25.946 80.206 80.206 0 0 0 -17.5-31.561 80.216 80.216 0 0 0 -19.724-15.862c-.349 5.21-.526 10.44-.526 15.64a234.4 234.4 0 0 0 24.636 104.322 35.863 35.863 0 0 0 32.094 19.838h17.476a30 30 0 0 1 -.6-5.974z"/><path d="m361.367 425.94-5.515 22.06h15.512l4.689-18.753-14.453-4.819a8.088 8.088 0 0 1 -.233 1.512z"/><path d="m435.754 88a16.116 16.116 0 0 0 5.852 5.853v-5.853z"/><path d="m385.606 192a7.984 7.984 0 0 0 -6.158 2.9 34.975 34.975 0 0 0 -.8 9.036 8 8 0 1 0 6.958-11.936z"/><path d="m418.619 88h-17.013a8 8 0 0 1 -7.155-4.422l-13.789-27.578h-33.515l-35.125 14.05-6.822 20.472v.008l-6.1 18.3-7.967 23.9 5.6 3.735a16 16 0 0 0 24.876-13.314v-27.151a8 8 0 0 1 16 0v27.155a32.039 32.039 0 0 1 -32 32.018c-.873 0-1.745-.046-2.616-.117a82.178 82.178 0 0 0 61.807 27.822c.462 0 .922 0 1.384-.013l9.629-33.7-16.734-5.577a8 8 0 0 1 -5.47-7.59v-15.998a8 8 0 0 1 16 0v10.234l16.515 5.5 36.364-7.273 19.121-12.747v-4.732a32.12 32.12 0 0 1 -22.99-22.982zm-49.013 8a8 8 0 1 1 8-8 8 8 0 0 1 -8 8z"/><path d="m432 424a24.039 24.039 0 0 1 19.026-23.478 63.932 63.932 0 0 1 0 46.956 24.039 24.039 0 0 1 -19.026-23.478zm36.92 20.209a80.257 80.257 0 0 0 0-40.418 23.97 23.97 0 0 1 0 40.418z"/></svg>