<?xml version="1.0" encoding="utf-8"?>
<!-- Generator: Adobe Illustrator 24.0.1, SVG Export Plug-In . SVG Version: 6.00 Build 0)  -->
<svg version="1.1" id="圖層_1" xmlns="http://www.w3.org/2000/svg" xmlns:xlink="http://www.w3.org/1999/xlink" x="0px" y="0px"
	 viewBox="0 0 512 512" style="enable-background:new 0 0 512 512;" xml:space="preserve">
<style type="text/css">
	.st0{fill:#555555;}
</style>
<path class="st0" d="M34.3,194.7c0.6-0.6,1.3-1.3,2-1.9c-3.9-4.7-6.2-10.7-6.2-17.1c0-8.3-6.7-15-15-15s-15,6.7-15,15
	c0,15.7,6.4,30.3,17.3,40.8C21.9,208.6,27.6,201.3,34.3,194.7z"/>
<path class="st0" d="M497,64.3h-58.1l-39.4-39.4V65c0,34.3-27.9,62.1-62.1,62.1c-11.8,0-22.8-3.3-32.1-9v41.4
	c0,18.3-14.9,33.2-33.2,33.2H112.4c-45,0-80.3,35.4-80.3,79.3v106.3L4.4,406.1c-2.8,2.8-4.4,6.6-4.4,10.6V497c0,8.3,6.7,15,15,15
	h96.4c8.3,0,15-6.7,15-15v-32.1c0-15.8-7.8-29.8-19.7-38.3l43.1-43.1h107.3V497c0,8.3,6.7,15,15,15h96.4c8.3,0,15-6.7,15-15v-32.1
	c0-20.8-13.5-38.4-32.1-44.7v-76.6c40.4-33.2,64.3-83.4,64.3-135.8v-17.1h33.2c34.9,0,63.2-28.3,63.2-63.2V79.3
	C512,71,505.3,64.3,497,64.3z"/>
<path class="st0" d="M337.4,97.1c17.7,0,32.1-14.4,32.1-32.1V10.2C369.5,4.6,365,0,359.3,0h-43.8c-5.6,0-10.2,4.6-10.2,10.2V65
	C305.3,82.7,319.7,97.1,337.4,97.1z"/>
</svg>
