<?xml version="1.0" encoding="utf-8"?>
<!-- Generator: Adobe Illustrator 24.0.1, SVG Export Plug-In . SVG Version: 6.00 Build 0)  -->
<svg version="1.1" id="圖層_1" xmlns="http://www.w3.org/2000/svg" xmlns:xlink="http://www.w3.org/1999/xlink" x="0px" y="0px"
	 viewBox="0 0 512 512" style="enable-background:new 0 0 512 512;" xml:space="preserve">
<style type="text/css">
	.st0{fill:#555555;}
</style>
<path class="st0" d="M367.4,104.1V0l-47.1,0c-34,0-61.7,27.7-61.7,61.7v42.4c0,30,24.4,54.4,54.4,54.4
	C343,158.5,367.4,134.1,367.4,104.1z"/>
<path class="st0" d="M0,425.3L0,497c0,8.3,6.7,15,15,15h274.2v-15c0-27.2-22-49.3-49.3-49.3h-16.1c-8.3,0-15-6.7-15-15v-16.1
	c0-36-29.3-65.3-65.3-65.3c-8.3,0-15-6.7-15-15c0-8.3,6.7-15,15-15c52.6,0,95.3,42.8,95.3,95.3v1.1h1.1c43.8,0,79.3,35.4,79.3,79.3
	v15h49.3c8.3,0,15-6.7,15-15v-13.8c0-14.3-3.4-28.6-9.8-41.4l-6.3-12.6v-86.9c20.8-23,32.1-52.4,32.1-83.6v-34.9
	c0-9.4,7.7-17.1,17.1-17.1h24.1c39.3,0,71.2-32,71.2-71.2v-24.1c0-8.3-6.7-15-15-15h-32.1c-18.3,0-33.2-14.9-33.2-33.2
	c0-24.4-13.9-45.6-34.3-56.2v97.1c0,46.5-37.9,84.4-84.4,84.4c-30.2,0-56.8-16-71.7-39.9c-16.7,33.1-44.5,60.2-79.9,75.6l-41.3,17.9
	C47.1,273.9,0,345.8,0,425.3z"/>
</svg>
