<?xml version="1.0" encoding="iso-8859-1"?>
<!-- Generator: Adobe Illustrator 19.0.0, SVG Export Plug-In . SVG Version: 6.00 Build 0)  -->
<svg version="1.1" id="Capa_1" xmlns="http://www.w3.org/2000/svg" xmlns:xlink="http://www.w3.org/1999/xlink" x="0px" y="0px"
	 viewBox="0 0 512.012 512.012" style="enable-background:new 0 0 512.012 512.012;" xml:space="preserve">
<path style="fill:#D4F5FE;" d="M356.987,20.26c-67.006,0.067-123.787,49.372-133.23,115.718
	c33.301,25.919,46.947,69.821,34.217,110.06c50.288,54.828,135.507,58.492,190.335,8.204
	c54.828-50.288,58.492-135.507,8.204-190.335C430.944,36.021,394.814,20.179,356.987,20.26z"/>
<g>
	<path style="fill:#29CBFC;" d="M385.815,120.486l-39.605,39.605l-18.051-18.051c-8.164-7.611-20.948-7.153-28.559,1.01
		c-7.234,7.759-7.234,19.789,0,27.549l32.331,32.331c7.894,7.881,20.665,7.881,28.559,0l53.885-53.885
		c7.611-8.164,7.153-20.948-1.01-28.559C405.604,113.252,393.575,113.252,385.815,120.486z"/>
	<path style="fill:#29CBFC;" d="M356.987,0.053c-66.144,0.094-124.945,42.124-146.432,104.671
		c-61.51-26.457-132.826,1.94-159.284,63.449c-22.174,51.527-6.102,111.528,38.851,145.085C34.985,340.457,0.054,396.592,0,458.074
		v33.678c0,11.154,9.053,20.207,20.207,20.207h282.895c11.154,0,20.207-9.053,20.207-20.207v-33.678
		c-0.054-61.483-34.985-117.604-90.122-144.815c12.649-9.268,23.399-20.88,31.657-34.217
		c68.595,51.015,165.561,36.763,216.577-31.846S518.183,81.635,449.574,30.62C422.807,10.723,390.342,0,356.987,0.053z
		 M282.895,458.074v13.471H40.414v-13.471c0-66.965,54.275-121.241,121.241-121.241S282.895,391.109,282.895,458.074z
		 M161.654,296.42c-44.644,0-80.827-36.184-80.827-80.827s36.184-80.827,80.827-80.827s80.827,36.184,80.827,80.827
		S206.298,296.42,161.654,296.42z M356.987,269.477c-28.276,0-55.555-10.508-76.516-29.502
		c8.271-40.683-4.836-82.767-34.756-111.542c14.657-61.523,76.409-99.512,137.932-84.855s99.512,76.409,84.855,137.932
		C456.189,233.119,410.05,269.531,356.987,269.477z"/>
</g>
<g>
</g>
<g>
</g>
<g>
</g>
<g>
</g>
<g>
</g>
<g>
</g>
<g>
</g>
<g>
</g>
<g>
</g>
<g>
</g>
<g>
</g>
<g>
</g>
<g>
</g>
<g>
</g>
<g>
</g>
</svg>
