<?xml version="1.0" encoding="iso-8859-1"?>
<!-- Generator: Adobe Illustrator 19.0.0, SVG Export Plug-In . SVG Version: 6.00 Build 0)  -->
<svg version="1.1" id="Layer_1" xmlns="http://www.w3.org/2000/svg" xmlns:xlink="http://www.w3.org/1999/xlink" x="0px" y="0px"
	 viewBox="0 0 512 512" style="enable-background:new 0 0 512 512;" xml:space="preserve">
<circle style="fill:#BFFAFF;" cx="256" cy="255.999" r="241"/>
<path style="fill:#75EFFF;" d="M256,15.001v481.998c133.1,0,241-107.898,241-240.998S389.1,15.001,256,15.001z"/>
<path style="fill:#FFFFFF;" d="M415.89,247.52c-2.879-4.202-71.529-102.921-159.886-102.921
	c-88.373,0-157.017,98.72-159.895,102.922c-3.5,5.109-3.5,11.845,0,16.954c2.879,4.203,71.522,102.922,159.895,102.922
	c88.357,0,157.007-98.719,159.886-102.921C419.391,259.367,419.391,252.63,415.89,247.52z"/>
<g>
	<path style="fill:#00479B;" d="M437.019,74.98C388.667,26.628,324.38,0.001,256,0.001c-68.381,0-132.668,26.629-181.021,74.98
		C26.628,123.332,0,187.619,0,256.001c0,63.354,22.873,123.186,64.689,170.096L4.394,486.392c-5.858,5.858-5.858,15.355,0,21.213
		C7.323,510.535,11.161,512,15,512c3.838,0,7.678-1.465,10.606-4.394l60.297-60.296c46.909,41.815,106.741,64.689,170.097,64.689
		c68.38,0,132.667-26.629,181.019-74.98C485.371,388.667,512,324.38,512,256.001C512,187.62,485.371,123.333,437.019,74.98z
		 M256,481.999C131.383,481.999,30,380.616,30,256C30,131.383,131.383,30,256,30s226,101.383,226,226
		C482,380.616,380.617,481.999,256,481.999z"/>
	<path style="fill:#00479B;" d="M256,210.999c-24.814,0-45,20.186-45,45c0,24.813,20.186,45,45,45c24.813,0,45-20.188,45-45
		C301,231.186,280.814,210.999,256,210.999z"/>
</g>
<g>
	<path style="fill:#003068;" d="M437.019,74.98C388.667,26.628,324.38,0.001,256,0.001v30c124.617,0,226,101.383,226,226
		c0,124.615-101.383,225.998-226,225.998v30c68.38,0,132.667-26.629,181.019-74.98C485.371,388.667,512,324.38,512,256.001
		C512,187.62,485.371,123.333,437.019,74.98z"/>
	<path style="fill:#003068;" d="M301,255.999c0-24.813-20.187-45-45-45v90C280.814,301,301,280.813,301,255.999z"/>
</g>
<g>
</g>
<g>
</g>
<g>
</g>
<g>
</g>
<g>
</g>
<g>
</g>
<g>
</g>
<g>
</g>
<g>
</g>
<g>
</g>
<g>
</g>
<g>
</g>
<g>
</g>
<g>
</g>
<g>
</g>
</svg>
