<?xml version="1.0" encoding="utf-8"?>
<!-- Generator: Adobe Illustrator 24.0.3, SVG Export Plug-In . SVG Version: 6.00 Build 0)  -->
<svg version="1.1" id="圖層_1" xmlns="http://www.w3.org/2000/svg" xmlns:xlink="http://www.w3.org/1999/xlink" x="0px" y="0px"
	 viewBox="0 0 63.8 63.8" style="enable-background:new 0 0 63.8 63.8;" xml:space="preserve">
<title>enent-date</title>
<g id="圖層_2_1_">
	<g id="圖層_1-2">
		<circle cx="48.1" cy="26.2" r="2.5"/>
		<path d="M53.9,5h-3.2V2.5c0-1.4-1.1-2.5-2.5-2.5s-2.5,1.1-2.5,2.5V5H34.3V2.5c0-1.4-1.1-2.5-2.5-2.5c-1.4,0-2.5,1.1-2.5,2.5V5
			H18.1V2.5C18.1,1.1,17,0,15.6,0s-2.5,1.1-2.5,2.5V5H10C4.5,5,0,9.5,0,15v38.9c0,5.5,4.5,10,10,10h19c1.4,0,2.5-1.1,2.5-2.5
			s-1.1-2.5-2.5-2.5H10c-2.8,0-5-2.2-5-5V15c0-2.8,2.2-5,5-5h3.1v2.5c0,1.4,1.1,2.5,2.5,2.5c1.4,0,2.5-1.1,2.5-2.5V10h11.2v2.5
			c0,1.4,1.1,2.5,2.5,2.5c1.4,0,2.5-1.1,2.5-2.5V10h11.3v2.5c0,1.4,1.1,2.5,2.5,2.5s2.5-1.1,2.5-2.5V10h3.2c2.8,0,5,2.2,5,5v14.2
			c0,1.4,1.1,2.5,2.5,2.5s2.5-1.1,2.5-2.5V15C63.9,9.5,59.4,5,53.9,5C53.9,5,53.9,5,53.9,5z"/>
		<path d="M48.8,33.7c-8.3,0-15.1,6.7-15.1,15.1c0,8.3,6.7,15.1,15.1,15.1c8.3,0,15.1-6.7,15.1-15.1c0,0,0,0,0,0
			C63.8,40.4,57.1,33.7,48.8,33.7z M48.8,58.8c-5.6,0-10.1-4.5-10.1-10.1s4.5-10.1,10.1-10.1s10.1,4.5,10.1,10.1v0
			C58.8,54.3,54.3,58.8,48.8,58.8z"/>
		<path d="M52.4,46.3h-1.1v-2.6c0-1.4-1.1-2.5-2.5-2.5s-2.5,1.1-2.5,2.5l0,0v5.1c0,1.4,1.1,2.5,2.5,2.5c0,0,0,0,0,0h3.6
			c1.4,0,2.5-1.1,2.5-2.5S53.7,46.2,52.4,46.3L52.4,46.3z"/>
		<circle cx="37.3" cy="26.2" r="2.5"/>
		<circle cx="26.4" cy="37" r="2.5"/>
		<circle cx="15.6" cy="26.2" r="2.5"/>
		<circle cx="15.6" cy="37" r="2.5"/>
		<circle cx="15.6" cy="47.9" r="2.5"/>
		<circle cx="26.4" cy="47.9" r="2.5"/>
		<circle cx="26.4" cy="26.2" r="2.5"/>
	</g>
</g>
</svg>
