<?xml version="1.0" encoding="utf-8"?>
<!-- Generator: Adobe Illustrator 24.0.3, SVG Export Plug-In . SVG Version: 6.00 Build 0)  -->
<svg version="1.1" id="圖層_1" xmlns="http://www.w3.org/2000/svg" xmlns:xlink="http://www.w3.org/1999/xlink" x="0px" y="0px"
	 viewBox="0 0 60.8 60.8" style="enable-background:new 0 0 60.8 60.8;" xml:space="preserve">
<style type="text/css">
	.st0{fill:none;stroke:#000000;stroke-width:4.7;stroke-miterlimit:10;}
</style>
<title>event-category</title>
<g id="圖層_2_1_">
	<g id="圖層_1-2">
		<path class="st0" d="M9.1,36.4h8.9c3.6,0,6.6,2.9,6.6,6.6v8.9c0,3.6-2.9,6.6-6.6,6.6H9.1c-3.6,0-6.6-2.9-6.6-6.6V43
			C2.5,39.4,5.4,36.4,9.1,36.4z"/>
		<path class="st0" d="M43,2.3h8.9c3.6,0,6.6,2.9,6.6,6.6v8.9c0,3.6-2.9,6.6-6.6,6.6H43c-3.6,0-6.6-2.9-6.6-6.6V8.9
			C36.4,5.3,39.4,2.3,43,2.3z"/>
		<path class="st0" d="M43,36.4h8.9c3.6,0,6.6,2.9,6.6,6.6v8.9c0,3.6-2.9,6.6-6.6,6.6H43c-3.6,0-6.6-2.9-6.6-6.6V43
			C36.4,39.4,39.4,36.4,43,36.4z"/>
		<path class="st0" d="M8.9,2.3h8.9c3.6,0,6.6,2.9,6.6,6.6v8.9c0,3.6-2.9,6.6-6.6,6.6H8.9c-3.6,0-6.6-2.9-6.6-6.6V8.9
			C2.3,5.3,5.3,2.3,8.9,2.3z"/>
	</g>
</g>
</svg>
