<?xml version="1.0" encoding="utf-8"?>
<!-- Generator: Adobe Illustrator 24.0.3, SVG Export Plug-In . SVG Version: 6.00 Build 0)  -->
<svg version="1.1" id="圖層_1" xmlns="http://www.w3.org/2000/svg" xmlns:xlink="http://www.w3.org/1999/xlink" x="0px" y="0px"
	 viewBox="0 0 20.7 20.7" style="enable-background:new 0 0 20.7 20.7;" xml:space="preserve">
<style type="text/css">
	.st0{fill:#999999;}
</style>
<title>event-clock</title>
<g id="圖層_2_1_">
	<g id="圖層_3">
		<g id="time">
			<path class="st0" d="M18.5,5.4c-0.4,0.2-0.6,0.7-0.4,1.2c2.1,4.3,0.3,9.5-4,11.5s-9.5,0.3-11.5-4s-0.3-9.5,4-11.5
				c3-1.5,6.5-1.1,9.1,1c0.4,0.3,0.9,0.2,1.2-0.1c0,0,0,0,0,0c0.3-0.4,0.2-0.9-0.1-1.2c0,0,0,0,0,0C12.3-1.3,5.8-0.5,2.2,4
				s-2.8,11,1.7,14.6s11,2.8,14.6-1.7c1.4-1.8,2.2-4.1,2.2-6.4c0-1.6-0.3-3.1-1-4.5C19.5,5.4,19,5.2,18.5,5.4
				C18.6,5.4,18.6,5.4,18.5,5.4z"/>
			<path class="st0" d="M10.4,3.5c-0.5,0-0.9,0.4-0.9,0.9v6c0,0.5,0.4,0.9,0.9,0.9h4.3c0.5,0.1,0.9-0.3,1-0.8c0.1-0.5-0.3-0.9-0.8-1
				c-0.1,0-0.1,0-0.2,0h-3.5V4.3C11.2,3.8,10.8,3.5,10.4,3.5z"/>
		</g>
	</g>
</g>
</svg>
