<?xml version="1.0" encoding="utf-8"?>
<!-- Generator: Adobe Illustrator 24.0.1, SVG Export Plug-In . SVG Version: 6.00 Build 0)  -->
<svg version="1.1" id="Capa_1" xmlns="http://www.w3.org/2000/svg" xmlns:xlink="http://www.w3.org/1999/xlink" x="0px" y="0px"
	 viewBox="0 0 435.8 435.8" style="enable-background:new 0 0 435.8 435.8;" xml:space="preserve">
<style type="text/css">
	.st0{fill:#555555;}
</style>
<g>
	<g>
		<path class="st0" d="M419.7,81.9h-15.9c-12.7,0-24.9-5.1-33.9-14.1l-19.9-19.9c-9-9-21.2-14.1-33.9-14.1H240
			c-7.6,0.6-14.7,2.8-22.9,8.2l-0.1,0.1c-5.8,3.9-39.9,38.6-44.8,43.5c-22.7,22.7-16.2,85.2,28.8,91.5c29.7,4.1,55-18.7,55-47.3
			v-14.3c0-20.8,13.4-38.4,32-45V88c-9.5,5.6-16,15.8-16,27.6v14.3c0,35.3-28.7,64-64,64c-1.7,0-3.5-0.4-5.2-0.5
			c-29.4,17.1-81.1,47.5-101.1,60.9c-1.8,1.1-3.5,2.4-5.2,3.6c-23,17.1-36.7,46-31.2,78c1.1,6.3,3.2,12.3,5.7,18.1l-0.2-0.1H24
			c-13.3,0-24,10.7-24,24s10.7,24,24,24h199.8c7.3,0,13.4-4.8,15.5-11.3c5.2-16-18.8-35.2-40.3-36.5c5.6-9.5,9-20.4,9-32.2
			c0-17-6.6-32.9-18.5-45l11.4-11.2c14.3,14.4,23.1,34.3,23.1,56.2c0,5.6-1,10.8-2.2,16c12.7,0,29.2,0,34.2,0v48c0,8.8,7.2,16,16,16
			h32h27.5c12.3,0,20.2-13.4,14-24c-7.4-12.6-20.4-21.5-35.6-23.4l3.6-28.5c19.2-11.8,33.4-31.4,37.3-54.1
			c5.5-31.8-8.1-60.5-30.8-77.6v-32.4h48c17.6,0,39.4-12.3,48.5-27.4l17-28.3C439.9,95.4,432.2,81.9,419.7,81.9z M336,93.9
			c-6.6,0-12-5.4-12-12c0-6.6,5.4-12,12-12s12,5.4,12,12C348,88.5,342.6,93.9,336,93.9z"/>
	</g>
</g>
</svg>
