<?xml version="1.0" encoding="utf-8"?>
<!-- Generator: Adobe Illustrator 24.0.1, SVG Export Plug-In . SVG Version: 6.00 Build 0)  -->
<svg version="1.1" id="圖層_1" xmlns="http://www.w3.org/2000/svg" xmlns:xlink="http://www.w3.org/1999/xlink" x="0px" y="0px"
	 viewBox="0 0 409.6 392" style="enable-background:new 0 0 409.6 392;" xml:space="preserve">
<style type="text/css">
	.st0{fill:#555555;}
</style>
<path class="st0" d="M297.6,283.3v43.8l5.9,26.4l17.7,5.9l-7.4-29.5c-0.2-0.6-0.2-1.3-0.2-1.9v-60.7L297.6,283.3z"/>
<path class="st0" d="M331.3,154.8c-0.2-1-0.3-2-0.4-3.1c-0.9-2.5-1.3-5.1-1.3-7.7c0-0.4,0-0.8,0-1.2c-34.1-1-65.3-19.7-82.2-49.3
	l-7.3,7.3c-11.1,21.7-26.9,40.5-46.4,55.1l-55.6,41.7c-26.9,20.3-46.4,48.9-55.3,81.4l-9,33l15.4,53.9c0.1,0.3,0.2,0.7,0.2,1
	c0,0,0,0.1,0,0.1c0,0.3,0.1,0.7,0.1,1v0.1v0.2v9.8c0,7.7,6.3,14,14,14h106v-8.7c0-8.4-6.8-15.3-15.3-15.3h-31.7c-4.4,0-8-3.6-8-8
	s3.6-8,8-8c11.1,0,21.2-6.2,26.1-16.2c2.9-5.8,3.8-12.4,2.5-18.8c-2.9-14.9-12.7-27.7-26.3-34.4l-6.9-3.5c-4-2-5.6-6.8-3.6-10.7
	c2-4,6.8-5.6,10.7-3.6c0,0,0,0,0,0l6.9,3.5c18.1,9,30.9,25.8,34.8,45.6c1.9,9.5,0.7,19.4-3.5,28.2l9.4-4.7l31.1-31.1
	c3.1-3.1,8.2-3.1,11.3,0c1,1,1.7,2.2,2.1,3.6l22.4,82.1h27.6l4.7-18.8l-17.9-6c-0.1,0-0.1,0-0.2-0.1c-0.2-0.1-0.4-0.1-0.6-0.2
	c-0.1,0-0.2-0.1-0.3-0.1c-0.3-0.1-0.5-0.3-0.7-0.4c-0.1-0.1-0.2-0.1-0.3-0.2c-0.1-0.1-0.3-0.2-0.4-0.3c-0.1-0.1-0.2-0.2-0.3-0.3
	c-0.1-0.1-0.3-0.3-0.4-0.4c-0.1-0.1-0.2-0.2-0.2-0.2c-0.2-0.2-0.4-0.4-0.5-0.7c-0.1-0.1-0.1-0.2-0.2-0.2c-0.1-0.2-0.2-0.4-0.3-0.5
	c-0.1-0.1-0.1-0.2-0.2-0.3c-0.1-0.2-0.2-0.3-0.2-0.5c0-0.1-0.1-0.2-0.1-0.4c-0.1-0.2-0.1-0.4-0.2-0.6c0-0.1-0.1-0.2-0.1-0.2l-7-31.7
	c-0.1-0.6-0.2-1.2-0.2-1.7v-48c0-2.1,0.8-4.2,2.3-5.7l30.9-30.9l8-18.7C332.3,202.7,335.3,178.4,331.3,154.8L331.3,154.8z"/>
<path class="st0" d="M73.6,369.1l-14.7-51.6c-10.3-5.4-17.9-14.8-21.1-25.9c-3.4-11.7-9.3-22.5-17.5-31.6
	c-5.7-6.3-12.4-11.7-19.7-15.9C0.2,249.4,0,254.6,0,259.8c0,36.2,8.5,71.9,24.6,104.3c6.1,12.2,18.5,19.8,32.1,19.8h17.5
	c-0.4-2-0.6-4-0.6-6V369.1z"/>
<path class="st0" d="M329.4,369.9l-5.5,22.1h15.5l4.7-18.8l-14.5-4.8C329.6,368.9,329.5,369.4,329.4,369.9L329.4,369.9z"/>
<path class="st0" d="M403.8,32c1.4,2.4,3.4,4.4,5.9,5.9V32H403.8z"/>
<path class="st0" d="M353.6,136c-2.4,0-4.6,1.1-6.2,2.9c-0.7,3-0.9,6-0.8,9c2.2,3.8,7.1,5.2,10.9,3s5.2-7.1,3-10.9
	C359.2,137.6,356.5,136,353.6,136L353.6,136z"/>
<path class="st0" d="M386.6,32h-17c-3,0-5.8-1.7-7.2-4.4L348.7,0h-33.5L280,14l-6.8,20.5v0l-6.1,18.3l-8,23.9l5.6,3.7
	c7.4,4.9,17.3,2.9,22.2-4.4c1.8-2.6,2.7-5.7,2.7-8.9V40c0-4.4,3.6-8,8-8s8,3.6,8,8v27.2c0,17.7-14.3,32-32,32c-0.9,0-1.7,0-2.6-0.1
	c15.6,17.7,38.2,27.9,61.8,27.8c0.5,0,0.9,0,1.4,0l9.6-33.7l-16.7-5.6c-3.3-1.1-5.5-4.1-5.5-7.6V64c0-4.4,3.6-8,8-8s8,3.6,8,8v10.2
	l16.5,5.5l36.4-7.3l19.1-12.7V55C398.3,52.1,389.6,43.3,386.6,32z M337.6,40c-4.4,0-8-3.6-8-8s3.6-8,8-8s8,3.6,8,8S342,40,337.6,40z
	"/>
</svg>
