<?xml version="1.0" encoding="utf-8"?>
<!-- Generator: Adobe Illustrator 24.0.3, SVG Export Plug-In . SVG Version: 6.00 Build 0)  -->
<svg version="1.1" id="圖層_1" xmlns="http://www.w3.org/2000/svg" xmlns:xlink="http://www.w3.org/1999/xlink" x="0px" y="0px"
	 viewBox="0 0 40 40" style="enable-background:new 0 0 40 40;" xml:space="preserve">
<title>icon-search</title>
<g>
	<path d="M34.3,7.8c-1.8-1.8-4.1-2.8-6.7-2.8s-4.9,1-6.7,2.8L20,8.8l-0.9-0.9c-1.8-1.8-4.2-2.8-6.7-2.8c-2.5,0-4.9,1-6.6,2.8
		C4,9.6,3,12,3,14.5c0,2.5,1,4.9,2.8,6.7l13.5,13.5c0.2,0.2,0.4,0.3,0.7,0.3c0.2,0,0.5-0.1,0.7-0.3l13.6-13.5C36,19.4,37,17,37,14.5
		C37,12,36,9.6,34.3,7.8z M32.9,19.8L20,32.6L7.1,19.8c-1.4-1.4-2.2-3.3-2.2-5.3s0.8-3.9,2.2-5.3C8.5,7.8,10.4,7,12.4,7
		c2,0,3.9,0.8,5.3,2.2l1.6,1.6c0.4,0.4,1,0.4,1.4,0l1.6-1.6C23.7,7.8,25.6,7,27.6,7c2,0,3.9,0.8,5.3,2.2c1.4,1.4,2.2,3.3,2.2,5.3
		C35.1,16.5,34.3,18.4,32.9,19.8z"/>
</g>
</svg>
